<?xml version="1.0" encoding="UTF-8" standalone="no"?>
<!DOCTYPE svg PUBLIC "-//W3C//DTD SVG 1.1//EN" "http://www.w3.org/Graphics/SVG/1.1/DTD/svg11.dtd">
<svg width="100%" height="100%" viewBox="0 0 3334 3334" version="1.1" xmlns="http://www.w3.org/2000/svg" xmlns:xlink="http://www.w3.org/1999/xlink" xml:space="preserve" xmlns:serif="http://www.serif.com/" style="fill-rule:evenodd;clip-rule:evenodd;stroke-linejoin:round;stroke-miterlimit:2;">
    <g transform="matrix(4.16667,0,0,4.16667,0,0)">
        <rect x="0" y="0" width="800" height="800" style="fill:rgb(42,76,114);"/>
        <g transform="matrix(10.299,0,0,10.299,141.164,343.527)">
            <path d="M0,27.332L57.3,0L114.601,27.332" style="fill:rgb(45,61,145);fill-rule:nonzero;"/>
        </g>
        <g transform="matrix(-5.11304,-8.94017,-8.94017,5.11304,62.6544,596.976)">
            <path d="M-4.089,22.344L-0.389,22.344L18.278,11.668L6.854,3.749L-4.089,22.344Z" style="fill:rgb(41,57,81);fill-rule:nonzero;"/>
        </g>
        <g transform="matrix(10.299,0,0,10.299,-5.90909,132.171)">
            <path d="M0,41.042L-12.545,35.059L-12.545,5.985L0.001,0L11.732,20.52L0,41.042Z" style="fill:rgb(46,67,93);fill-rule:nonzero;"/>
        </g>
        <g transform="matrix(-5.11217,-8.94067,-8.94067,5.11217,104.981,61.4303)">
            <path d="M-0.619,12.756L14.488,12.756L10.238,5.322L-1.794,-3.022L-0.619,12.756Z" style="fill:rgb(103,120,165);fill-rule:nonzero;"/>
        </g>
        <g transform="matrix(-5.11167,-8.94095,-8.94095,5.11167,245.535,137.798)">
            <path d="M-11.045,20.923L12.591,20.923L11.417,5.146L2.061,-1.343L-11.045,20.923Z" style="fill:rgb(118,134,183);fill-rule:nonzero;"/>
        </g>
        <g transform="matrix(10.299,0,0,10.299,141.168,-2.89583)">
            <path d="M0,6.303L-13.216,0L13.215,0L0,6.303Z" style="fill:rgb(111,127,173);fill-rule:nonzero;"/>
        </g>
        <g transform="matrix(-9.29553,-4.43428,-4.43428,9.29553,233.947,-5.85073)">
            <path d="M-6.092,9.826L5.294,9.826L-3.92,-1.552L-7.051,-3.046L-6.092,9.826Z" style="fill:rgb(123,140,193);fill-rule:nonzero;"/>
        </g>
        <g transform="matrix(-5.11187,-8.94084,-8.94084,5.11187,1160.11,445.574)">
            <path d="M-20.209,31.227L29.267,31.227L-13.544,1.539L-21.421,14.921L-20.209,31.227Z" style="fill:rgb(43,69,98);fill-rule:nonzero;"/>
        </g>
        <g transform="matrix(10.299,0,0,10.299,1215.59,112.507)">
            <path d="M0,44.861L-47.021,22.433L-47.021,22.431L0.002,0L12.825,22.429L0,44.861Z" style="fill:rgb(40,72,108);fill-rule:nonzero;"/>
        </g>
        <g transform="matrix(5.11143,-8.94109,-8.94109,-5.11143,1003.65,466.491)">
            <path d="M-2.758,28.882L35.986,28.882L46.6,10.316L40.053,-0.808L-2.759,28.883" style="fill:rgb(42,74,111);fill-rule:nonzero;"/>
        </g>
        <g transform="matrix(10.299,0,0,10.299,660.857,785.874)">
            <path d="M0,8.451L-22.548,8.451L-17.716,0L0,8.451Z" style="fill:rgb(44,77,115);fill-rule:nonzero;"/>
        </g>
        <g transform="matrix(10.299,0,0,10.299,801.779,343.521)">
            <path d="M0,51.402L-13.683,51.402L-31.399,42.951L-6.842,0L-6.841,0.002L17.714,42.952L0,51.402Z" style="fill:rgb(40,72,108);fill-rule:nonzero;"/>
        </g>
        <g transform="matrix(10.299,0,0,10.299,731.296,343.542)">
            <path d="M0,-0.001L0.002,0L0.001,-0.001L0,-0.001Z" style="fill:rgb(63,89,129);fill-rule:nonzero;"/>
        </g>
        <g transform="matrix(10.299,0,0,10.299,417.598,625.024)">
            <path d="M0,24.069L-44.882,24.069L-47.923,18.752L-51.829,11.92L-26.841,0L-8.856,8.577L0,24.069Z" style="fill:rgb(40,72,108);fill-rule:nonzero;"/>
        </g>
        <g transform="matrix(0,-10.299,-10.299,0,108.951,780.005)">
            <path d="M3.128,21.86L3.129,21.86L21.86,11.153L15.048,-3.128L3.128,21.86Z" style="fill:rgb(45,68,96);fill-rule:nonzero;"/>
        </g>
        <g transform="matrix(10.299,0,0,10.299,326.385,574.526)">
            <path d="M0,13.481L-17.983,4.903L-7.708,0L0,13.481Z" style="fill:rgb(42,70,102);fill-rule:nonzero;"/>
        </g>
        <g transform="matrix(-9.29541,-4.43454,-4.43454,9.29541,162.537,348.343)">
            <path d="M-9.695,25.14L6.128,25.14L4.375,1.567L-16.858,16.29L-9.695,25.14Z" style="fill:rgb(42,76,114);fill-rule:nonzero;"/>
        </g>
        <g transform="matrix(-5.11204,-8.94075,-8.94075,5.11204,881.653,84.3255)">
            <path d="M-14.602,25.165L24.144,25.165L5.053,-8.224L-14.602,25.165L-14.602,25.165" style="fill:rgb(81,101,142);fill-rule:nonzero;"/>
        </g>
        <g transform="matrix(-10.299,0,0,10.299,376.148,713.359)">
            <path d="M-5.096,15.492L-4.025,15.492L4.832,0L-9.928,7.041L-5.096,15.492Z" style="fill:rgb(67,91,129);fill-rule:nonzero;"/>
        </g>
        <g transform="matrix(-9.29554,-4.43427,-4.43427,9.29554,594.089,369.711)">
            <path d="M-7.259,41.307L9.094,41.307L21.854,32.459L-10.93,-8.031L-7.259,41.307Z" style="fill:rgb(58,84,122);fill-rule:nonzero;"/>
        </g>
        <g transform="matrix(-5.11176,-8.9409,-8.9409,5.11176,711.063,381.735)">
            <path d="M6.113,48.408L31.953,48.408L45.059,26.143L2.245,-3.547L6.113,48.408Z" style="fill:rgb(85,105,147);fill-rule:nonzero;"/>
        </g>
        <g transform="matrix(10.299,0,0,10.299,731.296,-2.91128)">
            <path d="M0,33.638L-47.024,11.207L-40.616,0L-19.23,0L0.001,33.638L0,33.638Z" style="fill:rgb(104,121,165);fill-rule:nonzero;"/>
        </g>
        <g transform="matrix(20.7902,0,0,7.96735,442.45,242.171)">
            <path d="M6.431,32.595L-10.749,32.437L-10.624,7.539L0.001,0L6.679,9.257L6.431,32.595Z" style="fill:rgb(46,67,93);fill-rule:nonzero;"/>
        </g>
        <g transform="matrix(1,0,0,1,0,9)">
            <path d="M568.149,119.776L400,146.944L231.859,119.776C230.464,119.465 229.043,119.322 227.638,119.322C223.14,119.322 218.733,120.844 215.16,123.72C210.485,127.495 207.76,133.179 207.76,139.2L207.76,496.949C207.76,501.203 209.131,505.324 211.628,508.721C212.158,509.461 212.763,510.159 213.411,510.815L385.772,686.683C387.614,688.566 389.783,690.055 392.171,691.072C393.87,691.804 395.67,692.283 397.528,692.527C398.335,692.628 399.168,692.678 400,692.678C405.365,692.678 410.494,690.509 414.228,686.683L416.01,684.875L581.031,516.49L586.589,510.815C590.213,507.106 592.24,502.137 592.24,496.949L592.24,139.2C592.24,133.179 589.524,127.495 584.84,123.72C581.283,120.844 576.86,119.322 572.37,119.322C570.957,119.322 569.553,119.465 568.149,119.776ZM302.42,417.125L288.124,417.125L288.124,442.397L270.51,442.397L270.51,355.603L302.42,355.603C323.012,355.603 333.308,365.644 333.308,385.726C333.308,395.852 330.692,403.616 325.459,409.02C320.225,414.423 312.546,417.125 302.42,417.125ZM465.671,371.175L465.671,355.603L529.49,355.603L529.49,371.175L506.515,371.175L506.515,442.397L488.901,442.397L488.901,371.175L465.671,371.175ZM342.531,355.603L361.038,355.603L371.76,427.336L373.674,427.336L389.246,355.603L409.668,355.603L425.24,427.336L427.155,427.336L437.876,355.603L456.384,355.603L439.791,442.397L413.114,442.397L399.457,376.408L385.8,442.397L359.124,442.397L342.531,355.603ZM288.124,402.063L302.292,402.063C311.057,402.063 315.439,396.617 315.439,385.726C315.439,380.365 314.375,376.514 312.248,374.174C310.121,371.834 306.802,370.664 302.292,370.664L288.124,370.664L288.124,402.063Z" style="fill:white;"/>
        </g>
    </g>
</svg>
